<svg width="800" height="600" xmlns="http://www.w3.org/2000/svg">
  <rect width="800" height="600" fill="#5C8DAE" rx="12"/>
  <!-- Aerial view of waterway -->
  <path d="M100 200 Q400 150 700 200 Q750 350 700 500 Q400 550 100 500 Q50 350 100 200Z" fill="#3A7D5C" opacity="0.3"/>
  <path d="M250 280 Q400 260 550 280 Q570 370 550 440 Q400 460 250 440 Q230 370 250 280Z" fill="#2D6A5A" opacity="0.4"/>
  <!-- Drone -->
  <rect x="380" y="140" width="40" height="15" fill="#333" rx="4" opacity="0.7"/>
  <line x1="370" y1="147" x2="350" y2="135" stroke="#555" stroke-width="3"/>
  <line x1="420" y1="147" x2="440" y2="135" stroke="#555" stroke-width="3"/>
  <circle cx="350" cy="132" r="8" fill="#555" opacity="0.5"/>
  <circle cx="440" cy="132" r="8" fill="#555" opacity="0.5"/>
  <text x="400" y="500" text-anchor="middle" fill="#fff" font-size="24" font-family="sans-serif" opacity="0.7">드론 항공 촬영</text>
</svg>
